<svg aria-hidden="true" style="width:0;height:0;position:absolute;overflow:hidden" xmlns="http://www.w3.org/2000/svg"><defs><symbol id="arrow-right" viewBox="0 0 24 24"><path d="M17.92 11.62a1 1 0 0 0-.21-.33l-5-5a1 1 0 0 0-1.42 1.42l3.3 3.29H7a1 1 0 0 0 0 2h7.59l-3.3 3.29a1 1 0 0 0 0 1.42 1 1 0 0 0 1.42 0l5-5a1 1 0 0 0 .21-.33 1 1 0 0 0 0-.76Z"/></symbol><symbol id="arrow-left" viewBox="0 0 24 24"><path d="M17 11H9.41l3.3-3.29a1 1 0 1 0-1.42-1.42l-5 5a1 1 0 0 0-.21.33 1 1 0 0 0 0 .76 1 1 0 0 0 .21.33l5 5a1 1 0 0 0 1.42 0 1 1 0 0 0 0-1.42L9.41 13H17a1 1 0 0 0 0-2Z"/></symbol><symbol id="close" viewBox="0 0 32 32"><path stroke-width="2.133" d="m8.533 8.533 14.933 14.933m-14.933.001L23.466 8.534"/></symbol><symbol id="favorite" viewBox="0 0 32 32"><path fill="#ff6b08" style="fill:var(--color1,#ff6b08)" d="m16 30.583-2.24-2.24C5.44 20.983 0 16.023 0 9.943c0-4.96 3.84-8.8 8.8-8.8 2.72 0 5.44 1.28 7.2 3.36 1.76-2.08 4.48-3.36 7.2-3.36 4.96 0 8.8 3.84 8.8 8.8 0 6.08-5.44 11.04-13.76 18.4L16 30.583z"/></symbol><symbol id="film" viewBox="0 0 32 32"><path fill="none" stroke="#fff" stroke-width="2.667" stroke-linecap="round" stroke-linejoin="round" style="stroke:var(--color2,#fff)" d="M26.427 2.667H5.574a2.907 2.907 0 0 0-2.907 2.907v20.853a2.907 2.907 0 0 0 2.907 2.907v0h20.853a2.907 2.907 0 0 0 2.907-2.907v0V5.574a2.907 2.907 0 0 0-2.907-2.907v0zm-17.094 0v26.667M22.667 2.667v26.667M2.667 16h26.667M2.667 9.333h6.667M2.667 22.667h6.667m13.333 0h6.667M22.667 9.333h6.667"/></symbol><symbol id="search" viewBox="0 0 32 32"><path fill="none" stroke="#fff" stroke-width="2.667" stroke-linecap="round" stroke-linejoin="round" style="stroke:var(--color2,#fff)" d="M14.667 25.333c5.891 0 10.667-4.776 10.667-10.667S20.558 3.999 14.667 3.999v0C8.776 3.999 4 8.775 4 14.666s4.776 10.667 10.667 10.667v0zM28 28l-5.8-5.8"/></symbol><symbol id="ukrainian_heart" viewBox="0 0 35 32"><path fill="#fecb00" style="fill:var(--color1,#fecb00)" d="M31.552 18.346c-.116.002-.233.009-.35.009a18.978 18.978 0 0 1-1.129-.041l.056.003a19.671 19.671 0 0 1-1.166-.108l.097.01c-.355-.042-.709-.093-1.061-.152s-.706-.126-1.057-.2a23.222 23.222 0 0 1-1.248-.287l.199.044c-.58-.141-.929-.238-1.275-.34l.234.059a27.37 27.37 0 0 1-1.31-.389l.276.077a30.844 30.844 0 0 1-1.352-.438l.33.101a53.64 53.64 0 0 1-2.555-.908l.523.177c-.677-.253-1.352-.512-2.029-.771-.676-.26-1.353-.519-2.031-.77s-1.357-.495-2.04-.723c-.016-.02-.357-.132-.699-.241l-.325-.089a9.871 9.871 0 0 0-.766-.237l-.263-.064a31.405 31.405 0 0 0-2.075-.5 14.994 14.994 0 0 0-.912-.167l-.135-.018a16.625 16.625 0 0 0-.96-.128l-.093-.008c-.279-.031-.646-.06-1.016-.078l-.045-.002a17.234 17.234 0 0 0-5.567.631l.121-.029a17.69 17.69 0 0 0-1.057.328c-.076.026-.15.059-.225.087 1.409 4.55 5.199 9.262 11.973 15.042 2.432 2.075 4.557 3.773 4.721 3.773.802 0 7.03-5.311 10.192-8.691 1.587-1.697 2.926-3.356 4.021-4.964z"/><path fill="#0068c2" style="fill:var(--color2,#0068c2)" d="M8.318 0C6.722.014 5.165.372 3.995 1.107.973 3.006-.045 5.061.002 9.167c.019 1.441.253 2.82.67 4.117l-.028-.099c.076-.027.15-.06.226-.087 1.615-.576 3.478-.922 5.418-.95h.013l.162-.001c.694 0 1.38.036 2.055.107l-.084-.007c.353.036.704.082 1.054.136a24.642 24.642 0 0 1 2.088.416c.345.084.69.173 1.034.269a40.417 40.417 0 0 1 2.054.631c.682.228 1.361.471 2.04.722s1.354.51 2.031.769c.676.259 1.352.518 2.029.771s1.354.5 2.032.732a45.218 45.218 0 0 0 2.055.648 31.323 31.323 0 0 0 2.09.523c.351.074.703.141 1.056.2.353.059.707.11 1.062.152s.712.075 1.069.098c.357.023.715.036 1.073.038.117.001.234-.007.35-.009 4.506-6.612 4.829-12.353.748-16.262C30.912.752 29.822.319 27.344.113c-3.873-.321-6.376.808-8.27 3.732-1.508 2.33-1.992 2.52-2.48.982-.189-.595-1.141-1.845-2.115-2.778C13.064.694 10.649-.023 8.316-.002z"/><path opacity=".218" style="fill:var(--color3,#000)" d="M21.688 27.453c7.615-8.094 10.492-13.114 10.501-18.324.007-4.137-1.259-6.454-4.332-7.913L25.376.037l2.586.287c4.755.531 7.769 5.212 6.88 10.68-.672 4.123-3.267 8.13-8.941 13.809-6.575 6.575-9.84 8.623-4.213 2.64zM14.239 5.404C13 3.159 11.96 2.125 10.087 1.276 7.658.171 7.638.142 9.37.131c3.317-.022 8.334 4.48 7.861 7.05-.323 1.752-1.398 1.114-2.992-1.777z"/><path fill="#fff" opacity=".368" style="fill:var(--color4,#fff)" d="M6.445 2.728c-.728-.004-1.506.457-2.449 1.401-2.635 2.375-1.053 11.816.126 5.815.217-.988 1.658-2.364 2.593-3.057 2.16-1.598 2.532-2.169 1.392-3.308-.56-.56-1.096-.847-1.661-.852zm17.625.133c-1.031-.007-2.122.773-2.859 2.196-1.161 2.245-.506 2.36 1.194 2.36.796 0 1.569-.65 2.487-1.445 1.542-1.34 1.591-1.515.69-2.431a2.114 2.114 0 0 0-1.51-.679h-.002z"/></symbol></defs></svg>