<svg aria-hidden="true" style="position: absolute; width: 0; height: 0; overflow: hidden;" version="1.1" xmlns="http://www.w3.org/2000/svg" xmlns:xlink="http://www.w3.org/1999/xlink">
<defs>
<symbol id="arrow-right" viewBox="0 0 24 24">
<path d="M17.92 11.62a1 1 0 0 0-.21-.33l-5-5a1 1 0 0 0-1.42 1.42l3.3 3.29H7a1 1 0 0 0 0 2h7.59l-3.3 3.29a1 1 0 0 0 0 1.42 1 1 0 0 0 1.42 0l5-5a1 1 0 0 0 .21-.33 1 1 0 0 0 0-.76Z"/>
</symbol>
<symbol id="arrow-left" viewBox="0 0 24 24">
<path d="M17 11H9.41l3.3-3.29a1 1 0 1 0-1.42-1.42l-5 5a1 1 0 0 0-.21.33 1 1 0 0 0 0 .76 1 1 0 0 0 .21.33l5 5a1 1 0 0 0 1.42 0 1 1 0 0 0 0-1.42L9.41 13H17a1 1 0 0 0 0-2Z"/>
</symbol>
<symbol id="close" viewBox="0 0 32 32">
<path stroke-width="2.1333" stroke-miterlimit="4" stroke-linecap="butt" stroke-linejoin="miter" d="M8.533 8.533l14.933 14.933M8.533 23.467l14.933-14.933"></path>
</symbol>
<symbol id="favorite" viewBox="0 0 32 32">
<path fill="#ff6b08" style="fill: var(--color1, #ff6b08)" d="M16 30.583l-2.24-2.24c-8.32-7.36-13.76-12.32-13.76-18.4 0-4.96 3.84-8.8 8.8-8.8 2.72 0 5.44 1.28 7.2 3.36 1.76-2.080 4.48-3.36 7.2-3.36 4.96 0 8.8 3.84 8.8 8.8 0 6.080-5.44 11.040-13.76 18.4l-2.24 2.24z"></path>
</symbol>
<symbol id="film" viewBox="0 0 32 32">
<path fill="none" stroke="#fff" stroke-width="2.6667" stroke-miterlimit="4" stroke-linecap="round" stroke-linejoin="round" style="stroke: var(--color2, #fff)" d="M26.427 2.667h-20.853c-1.605 0-2.907 1.301-2.907 2.907v0 20.853c0 1.605 1.301 2.907 2.907 2.907v0h20.853c1.605 0 2.907-1.301 2.907-2.907v0-20.853c0-1.605-1.301-2.907-2.907-2.907v0zM9.333 2.667v26.667M22.667 2.667v26.667M2.667 16h26.667M2.667 9.333h6.667M2.667 22.667h6.667M22.667 22.667h6.667M22.667 9.333h6.667"></path>
</symbol>
<symbol id="search" viewBox="0 0 32 32">
<path fill="none" stroke="#fff" stroke-width="2.6667" stroke-miterlimit="4" stroke-linecap="round" stroke-linejoin="round" style="stroke: var(--color2, #fff)" d="M14.667 25.333c5.891 0 10.667-4.776 10.667-10.667s-4.776-10.667-10.667-10.667v0c-5.891 0-10.667 4.776-10.667 10.667s4.776 10.667 10.667 10.667v0zM28 28l-5.8-5.8"></path>
</symbol>
<symbol id="ukrainian_heart" viewBox="0 0 35 32">
<path fill="#fecb00" style="fill: var(--color1, #fecb00)" d="M31.552 18.346c-0.116 0.002-0.233 0.009-0.35 0.009-0.383-0.003-0.758-0.016-1.129-0.041l0.056 0.003c-0.433-0.028-0.801-0.063-1.166-0.108l0.097 0.010c-0.355-0.042-0.709-0.093-1.061-0.152s-0.706-0.126-1.057-0.2c-0.545-0.112-0.898-0.196-1.248-0.287l0.199 0.044c-0.58-0.141-0.929-0.238-1.275-0.34l0.234 0.059c-0.623-0.171-0.967-0.278-1.31-0.389l0.276 0.077c-0.675-0.205-1.014-0.32-1.352-0.438l0.33 0.101c-1.213-0.403-1.886-0.651-2.555-0.908l0.523 0.177c-0.677-0.253-1.352-0.512-2.029-0.771-0.676-0.26-1.353-0.519-2.031-0.77s-1.357-0.495-2.040-0.723c-0.016-0.020-0.357-0.132-0.699-0.241l-0.325-0.089c-0.077-0.036-0.42-0.139-0.766-0.237l-0.263-0.064c-0.344-0.095-0.688-0.186-1.034-0.269s-0.694-0.161-1.041-0.231c-0.199-0.046-0.554-0.111-0.912-0.167l-0.135-0.018c-0.237-0.041-0.597-0.089-0.96-0.128l-0.093-0.008c-0.279-0.031-0.646-0.060-1.016-0.078l-0.045-0.002c-0.356-0.017-0.713-0.024-1.072-0.020-1.564 0.020-3.068 0.246-4.495 0.651l0.121-0.029c-0.356 0.098-0.708 0.208-1.057 0.328-0.076 0.026-0.15 0.059-0.225 0.087 1.409 4.55 5.199 9.262 11.973 15.042 2.432 2.075 4.557 3.773 4.721 3.773 0.802 0 7.030-5.311 10.192-8.691 1.587-1.697 2.926-3.356 4.021-4.964z"></path>
<path fill="#0068c2" style="fill: var(--color2, #0068c2)" d="M8.318-0c-1.596 0.014-3.153 0.372-4.323 1.107-3.022 1.899-4.040 3.954-3.993 8.060 0.019 1.441 0.253 2.82 0.67 4.117l-0.028-0.099c0.076-0.027 0.15-0.060 0.226-0.087 1.615-0.576 3.478-0.922 5.418-0.95l0.013-0c0.048-0 0.105-0.001 0.162-0.001 0.694 0 1.38 0.036 2.055 0.107l-0.084-0.007c0.353 0.036 0.704 0.082 1.054 0.136s0.7 0.116 1.047 0.185c0.348 0.069 0.696 0.147 1.041 0.231s0.69 0.173 1.034 0.269 0.688 0.196 1.029 0.301c0.343 0.106 0.684 0.216 1.025 0.33 0.682 0.228 1.361 0.471 2.040 0.722s1.354 0.51 2.031 0.769c0.676 0.259 1.352 0.518 2.029 0.771s1.354 0.5 2.032 0.732c0.339 0.116 0.68 0.229 1.022 0.337s0.688 0.212 1.033 0.311c0.345 0.099 0.693 0.193 1.041 0.28s0.698 0.169 1.049 0.243 0.703 0.141 1.056 0.2c0.353 0.059 0.707 0.11 1.062 0.152s0.712 0.075 1.069 0.098c0.357 0.023 0.715 0.036 1.073 0.038 0.117 0.001 0.234-0.007 0.35-0.009 4.506-6.612 4.829-12.353 0.748-16.262-1.387-1.329-2.477-1.762-4.955-1.968-3.873-0.321-6.376 0.808-8.27 3.732-1.508 2.33-1.992 2.52-2.48 0.982-0.189-0.595-1.141-1.845-2.115-2.778-1.415-1.355-3.83-2.072-6.163-2.051z"></path>
<path fill="#000" opacity="0.217903" style="fill: var(--color3, #000)" d="M21.688 27.453c7.615-8.094 10.492-13.114 10.501-18.324 0.007-4.137-1.259-6.454-4.332-7.913l-2.481-1.179 2.586 0.287c4.755 0.531 7.769 5.212 6.88 10.68-0.672 4.123-3.267 8.13-8.941 13.809-6.575 6.575-9.84 8.623-4.213 2.64zM14.239 5.404c-1.239-2.245-2.279-3.279-4.152-4.128-2.429-1.105-2.449-1.134-0.717-1.145 3.317-0.022 8.334 4.48 7.861 7.050-0.323 1.752-1.398 1.114-2.992-1.777z"></path>
<path fill="#fff" opacity="0.367623" style="fill: var(--color4, #fff)" d="M6.445 2.728c-0.728-0.004-1.506 0.457-2.449 1.401-2.635 2.375-1.053 11.816 0.126 5.815 0.217-0.988 1.658-2.364 2.593-3.057 2.16-1.598 2.532-2.169 1.392-3.308-0.56-0.56-1.096-0.847-1.661-0.852zM24.070 2.861c-1.031-0.007-2.122 0.773-2.859 2.196-1.161 2.245-0.506 2.36 1.194 2.36 0.796 0 1.569-0.65 2.487-1.445 1.542-1.34 1.591-1.515 0.69-2.431-0.379-0.408-0.914-0.667-1.51-0.679l-0.002-0z"></path>
</symbol>

</defs>
</svg>
